<svg version="1.1" id="Layer_1" xmlns="http://www.w3.org/2000/svg" xmlns:xlink="http://www.w3.org/1999/xlink" x="0px" y="0px"
	 width="100%" viewBox="0 0 76 66" enable-background="new 0 0 76 66" xml:space="preserve">
<path fill="#0E0E0E" opacity="1.000000" stroke="none" 
	d="
M44.000000,67.000000 
	C29.333336,67.000000 15.166674,67.000000 1.000008,67.000000 
	C1.000005,45.000008 1.000005,23.000017 1.000003,1.000019 
	C26.333319,1.000013 51.666637,1.000013 76.999969,1.000006 
	C76.999977,22.999979 76.999977,44.999958 76.999985,66.999969 
	C66.166664,67.000000 55.333332,67.000000 44.000000,67.000000 
M50.509354,29.847254 
	C52.796253,29.515276 55.182770,29.490158 57.349144,28.786898 
	C61.743870,27.360250 64.491913,22.698843 63.968445,18.211990 
	C63.408997,13.416720 59.520275,9.499865 54.854980,9.032595 
	C50.157536,8.562105 45.529884,11.597238 44.043545,16.123482 
	C39.909908,28.711342 35.520630,31.293776 23.329220,28.395391 
	C23.329220,35.614929 23.329220,42.854153 23.329220,49.996971 
	C30.133696,49.996971 36.598434,49.996971 43.590153,49.996971 
	C43.590153,45.369038 43.664478,40.914940 43.568710,36.464500 
	C43.477676,32.234066 45.130596,29.766838 50.509354,29.847254 
z"/>
<path fill="#FAFAFA" opacity="1.000000" stroke="none" 
	d="
M50.078247,29.847622 
	C45.130596,29.766838 43.477676,32.234066 43.568710,36.464500 
	C43.664478,40.914940 43.590153,45.369038 43.590153,49.996971 
	C36.598434,49.996971 30.133696,49.996971 23.329220,49.996971 
	C23.329220,42.854153 23.329220,35.614929 23.329220,28.395391 
	C35.520630,31.293776 39.909908,28.711342 44.043545,16.123482 
	C45.529884,11.597238 50.157536,8.562105 54.854980,9.032595 
	C59.520275,9.499865 63.408997,13.416720 63.968445,18.211990 
	C64.491913,22.698843 61.743870,27.360250 57.349144,28.786898 
	C55.182770,29.490158 52.796253,29.515276 50.078247,29.847622 
z"/>
</svg>